# xmcd CD database file generated by Grip 3.3.1
# 
# Track frame offsets:
#       150
#       11991
#       45131
#       51391
#       69569
#       81614
#       102794
#       110898
#       125840
#       133217
#       152014
#       164263
#       170651
#       172528
#       175709
#       180284
#       182891
#       187321
#       197166
#       201442
#       242612
#       268527
#       285684
# 
# Disc length: 4110 seconds
# 
# Revision: 1
# Processed by: cddbd v1.5.2PL0 Copyright (c) Steve Scherf et al.
# Submitted via: Grip 3.3.1
# 
DISCID=55100c17
DTITLE=Berlage Saxophone Quartet, HortusEnsemble - Hortus Festival Live 
DTITLE=cd3
DYEAR=2017
DGENRE=Classical
TTITLE0=I. Allegro - Suite voor orkest nr.6, muziek uit de film 'Le grand
TTITLE0=jeu' (1934) - Hanns Eisler, arr. Christoph Enzel (Berlage Saxoph
TTITLE0=one Quartet)
TTITLE1=II. Andante - Suite voor orkest nr.6, muziek uit de film 'Le gran
TTITLE1=d jeu' (1934) - Hanns Eisler, arr. Christoph Enzel (Berlage Saxop
TTITLE1=hone Quartet)
TTITLE2=III. Mars - Suite voor orkest nr.6, muziek uit de film 'Le grand 
TTITLE2=jeu' (1934) - Hanns Eisler, arr. Christoph Enzel (Berlage Saxopho
TTITLE2=ne Quartet)
TTITLE3=I. Décidé - Trio in D (1938) - Georges Auric (HortusEnsemble)
TTITLE4=II. Romance - Trio in D (1938) - Georges Auric (HortusEnsemble)
TTITLE5=III. Finale - Trio in D (1938) - Georges Auric (HortusEnsemble)
TTITLE6=I. Alla Valse viennese (allegro) - Fünf Stücke für Streichquar
TTITLE6=tett (1923) - Erwin Schullhoff, arr. Peter Vigh (Berlage Saxophon
TTITLE6=e Quartet)
TTITLE7=II. Alla Serenata (allegretto con moto) - Fünf Stücke für Stre
TTITLE7=ichquartett (1923) - Erwin Schullhoff, arr. Peter Vigh (Berlage S
TTITLE7=axophone Quartet)
TTITLE8=III. Alla Czeca (molto allegro) - Fünf Stücke für Streichquart
TTITLE8=ett (1923) - Erwin Schullhoff, arr. Peter Vigh (Berlage Saxophone
TTITLE8=Quartet)
TTITLE9=IV. Alla Tango milonga (andante) - Fünf Stücke für Streichquar
TTITLE9=tett (1923) - Erwin Schullhoff, arr. Peter Vigh (Berlage Saxophon
TTITLE9=e Quartet)
TTITLE10=V. Alla Tarantella (prestissimo con fuoco) - Fünf Stücke für S
TTITLE10=treichquartett (1923) - Erwin Schullhoff, arr. Peter Vigh (Berlag
TTITLE10=e Saxophone Quartet)
TTITLE11=I. Entrée et Rondeau - Suite d'après Corrette, Op.161b (1937) -
TTITLE11=Darius Milhaud (HortusEnsemble)
TTITLE12=II. Tambourin - Suite d'après Corrette, Op.161b (1937) - Darius 
TTITLE12=Milhaud (HortusEnsemble)
TTITLE13=III. Musette - Suite d'après Corrette, Op.161b (1937) - Darius M
TTITLE13=ilhaud (HortusEnsemble)
TTITLE14=IV. Sérénade - Suite d'après Corrette, Op.161b (1937) - Darius
TTITLE14=Milhaud (HortusEnsemble)
TTITLE15=V. Fanfare - Suite d'après Corrette, Op.161b (1937) - Darius Mil
TTITLE15=haud (HortusEnsemble)
TTITLE16=VI. Rondeau - Suite d'après Corrette, Op.161b (1937) - Darius Mi
TTITLE16=lhaud (HortusEnsemble)
TTITLE17=VII. Menuett - Suite d'après Corrette, Op.161b (1937) - Darius M
TTITLE17=ilhaud (HortusEnsemble)
TTITLE18=VIII. Le Coucou - Suite d'après Corrette, Op.161b (1937) - Dariu
TTITLE18=s Milhaud (HortusEnsemble)
TTITLE19=I. Allegro ma non troppo - Strijkkwartet nr.12 in F op.96 'Amerik
TTITLE19=aans' (1893) - Antonín Dvořák, arr. Lars Niederstrasser (Berla
TTITLE19=ge Saxophone Quartet)
TTITLE20=II. Lento - Strijkkwartet nr.12 in F op.96 'Amerikaans' (1893) - 
TTITLE20=Antonín Dvořák, arr. Lars Niederstrasser (Berlage Saxophone Qu
TTITLE20=artet)
TTITLE21=III. Molto vivace - Strijkkwartet nr.12 in F op.96 'Amerikaans' (
TTITLE21=1893) - Antonín Dvořák, arr. Lars Niederstrasser (Berlage Saxo
TTITLE21=phone Quartet)
TTITLE22=IV. Finale: Vivace ma non troppo - Strijkkwartet nr.12 in F op.96
TTITLE22='Amerikaans' (1893) - Antonín Dvořák, arr. Lars Niederstrasse
TTITLE22=r (Berlage Saxophone Quartet)
EXTD=
EXTT0=
EXTT1=
EXTT2=
EXTT3=
EXTT4=
EXTT5=
EXTT6=
EXTT7=
EXTT8=
EXTT9=
EXTT10=
EXTT11=
EXTT12=
EXTT13=
EXTT14=
EXTT15=
EXTT16=
EXTT17=
EXTT18=
EXTT19=
EXTT20=
EXTT21=
EXTT22=
PLAYORDER=
